#!OML:ASF F:\VICON\USERDATA\INSTALL\rory3\rory3.ASF
:FULLY-SPECIFIED
:DEGREES
37
root -0.2603165281561902 18.43912804084729 8.66549357278355 4.906493886130994 -3.262593695834314 1.6613852530556272
lfemur 11.329816219270722 -6.2681205002037395 -29.440049611187035
ltibia 44.92484352648867
lfoot 27.735154206308763 -21.802154054222157
ltoes -8.853380318074192
rfemur -37.287967181244895 0.07180571950024195 24.931333245818838
rtibia 25.21794240614452
rfoot 6.0374021386928955 -1.1463749853628933
rtoes -15.731329119785068
lowerback 13.838438069167255 -1.7454754449475058 -2.151135319097169
upperback -1.0661718150313673 -2.5877162064537025 0.9708534307594514
thorax -8.930453675518413 -1.1116015941045534 2.7543315837718323
lowerneck -20.36650241858774 -3.1940508918029473 -2.406913870844262
upperneck 13.688301926399676 -4.180661830473252 2.5720509634807267
head 7.68450832927117 -1.8248974520235737 0.7268058904257882
lclavicle -1.7334081287107538e-15 -1.408153420397618e-15
lhumerus -37.875096416853374 -15.72898543504022 93.47979124314058
lradius 112.79330051165866
lwrist 35.00812325923413
lhand -24.773795049045262 0.6251559740816806
lfingers 7.125020000000055
lthumb 1.7296294913844805 30.544454454121688
rclavicle -1.7334081287107538e-15 -1.408153420397618e-15
rhumerus -65.34781612572873 3.616275404163078 -96.4377104650737
rradius 110.43506920738076
rwrist -15.853295780927212
rhand -19.79478290727983 33.37373165143136
rfingers 7.125020000000055
rthumb 6.536141593907856 11.802038370448857
38
root -0.27366924211426863 18.252464762495013 8.023732911506057 4.143250258302924 -3.69121960575348 1.4503374404727332
lfemur 9.20289658977303 -5.222158659521451 -28.42629943588998
ltibia 52.27699178656945
lfoot 26.402716199553407 -21.566116670406245
ltoes -6.688076005313424
rfemur -36.49829139404616 -0.06216215142858417 25.69173584320277
rtibia 28.493103340092052
rfoot 4.619028708547752 -0.3437494308979758
rtoes -10.274538828510925
lowerback 14.336604196439211 -1.5367954609580976 -1.9789152822855776
upperback -0.8196705414282437 -2.2786811292644993 0.9605606839681475
thorax -8.956018205070103 -0.9756955078573241 2.5304314977240745
lowerneck -20.19950571039711 -3.27430986412313 -2.450126280731028
upperneck 13.467662746905063 -4.247538869637702 2.384432107237162
head 7.5744505826729185 -1.8793117004311621 0.6656687902715668
lclavicle -2.0418162450726754e-15 -1.646954718172954e-15
lhumerus -39.084860279000054 -15.161553618920225 93.77803963245593
lradius 110.27395367630109
lwrist 34.783432352685736
lhand -25.096370484365615 0.20854855911667158
lfingers 7.125020000000054
lthumb 1.4180981821722132 30.12564798561877
rclavicle -2.0418162450726754e-15 -1.646954718172954e-15
rhumerus -64.08131749453474 3.1611741561257922 -96.66510022994792
rradius 108.74509178465755
rwrist -16.139764262656605
rhand -19.95516359068349 33.128013680285214
rfingers 7.125020000000054
rthumb 6.38143365667716 11.460359783424344
39
root -0.2634669655997713 18.021168271919606 8.780172269662158 3.405691443871753 -4.367679556299366 0.9762977449082397
lfemur 6.813540109086503 -3.4590048544293133 -26.632634010296027
ltibia 60.739948056087336
lfoot 24.789712443457773 -20.373606896889832
ltoes -4.96205308243435
rfemur -35.70142468119711 0.28001232397341846 26.690046984652074
rtibia 33.73068593435311
rfoot 1.2308353178465294 0.6875536349158544
rtoes -3.420757022780524
lowerback 14.993587852947945 -1.2339488130473755 -1.6386412196657043
upperback -0.6186587707786038 -1.803716159991759 1.090284706948395
thorax -9.103685843049673 -0.7624589300321648 2.3588969445069465
lowerneck -20.0378706671033 -3.309635020743344 -2.4462749389528082
upperneck 13.314304454401022 -4.262888530737453 2.1836532535408706
head 7.482975643609975 -1.9100894165592257 0.5974689977801484
lclavicle -2.1104842567988178e-15 -1.7001245633334646e-15
lhumerus -40.3967853780714 -14.493763751825846 94.34157561811108
lradius 108.40872036835074
lwrist 34.979078549342695
lhand -25.359121461952697 -0.1747713080962594
lfingers 7.125020000000053
lthumb 1.164356004403129 29.74082876677545
rclavicle -2.1104842567988178e-15 -1.7001245633334646e-15
rhumerus -62.39160597988388 3.604798429262658 -97.05508893818197
rradius 107.84693416918427
rwrist -16.632364036430108
rhand -20.101620331291127 32.36548029010479
rfingers 7.125020000000053
rthumb 6.240106245350025 11.224897356297443
40
root -0.24905461939717471 17.772708498355872 9.79127314770462 2.7492776406266555 -5.021907760180055 0.255897373545511
lfemur 4.005718164662245 -1.1913475394496158 -24.142039813480842
ltibia 70.53854877603337
lfoot 23.091298840148728 -18.60059415239742
ltoes -3.3681803848804424
rfemur -34.45902154182446 1.2957218783583124 27.928991026505624
rtibia 39.53310096003445
rfoot -2.5400751993611723 1.1859409928898454
rtoes 3.9986272962158553
lowerback 15.742725963911838 -0.892433057617228 -1.0462519402225852
upperback -0.4415735959592397 -1.2230421294432556 1.3387395781010887
thorax -9.310611868145125 -0.5062868304685334 2.1733128466360756
lowerneck -19.8984064797968 -3.27265278505676 -2.388070424802472
upperneck 13.306026666382273 -4.182663773931601 1.9518914335554967
head 7.442104050611433 -1.8988659476209728 0.5198308870541104
lclavicle -1.9800836591901496e-15 -1.5991550108590934e-15
lhumerus -41.51721753648167 -13.667550562071357 94.99337177138501
lradius 107.06650126531119
lwrist 35.12547526928214
lhand -25.629882275509903 -0.47581716228052606
lfingers 7.125020000000054
lthumb 0.9029187989232665 29.442094863076072
rclavicle -1.9800836591901496e-15 -1.5991550108590934e-15
rhumerus -60.26481794254292 4.0888966770046995 -97.12723520261547
rradius 107.28336816556745
rwrist -16.794809161561513
rhand -20.207615838393174 32.246412580092425
rfingers 7.125020000000054
rthumb 6.1379345836686845 10.80535702339261
41
root -0.25696214698843123 17.502459016872013 10.621877186522404 2.2813942363462316 -5.60962143863051 -0.8382218699232824
lfemur -0.03978147654405184 1.4006313853000678 -20.927049889322902
ltibia 80.70689936413365
lfoot 20.759505523575392 -16.82102284854858
ltoes -2.0015110339026094
rfemur -33.092138479227046 2.576817792412747 29.529382938887554
rtibia 45.46715096437628
rfoot -7.1482487729831234 -0.11522101293074627
rtoes 9.692810341356072
lowerback 16.530868829645627 -0.561910252615981 -0.16863454927966393
upperback -0.3017549329904902 -0.5918180094779536 1.7184171393498295
thorax -9.598812780885371 -0.23402155107653866 1.9114938324711126
lowerneck -19.941499337058787 -3.225542747490766 -2.261087597628755
upperneck 13.253209452127486 -4.105924526009483 1.6940288926870612
head 7.416542190968615 -1.8834948554748416 0.42195590453250925
lclavicle -2.002909548822709e-15 -1.616829173200953e-15
lhumerus -42.87153274789205 -12.673670637210416 95.45366605492129
lradius 105.11764085834295
lwrist 34.87274993413859
lhand -25.824610003498258 -0.4177730564403124
lfingers 7.125020000000054
lthumb 0.7149336571388891 29.506144959785217
rclavicle -2.002909548822709e-15 -1.616829173200953e-15
rhumerus -57.4940594859693 4.943022314825136 -97.3459454795982
rradius 106.40211423906864
rwrist -17.201877396912103
rhand -20.229731030301785 32.45385830157062
rfingers 7.125020000000054
rthumb 6.116688824095019 10.276557175563296
42
root -0.2638622247791226 17.251237382471427 11.497607084396686 2.0676840010145305 -5.770848943249012 -2.090986696575115
lfemur -4.917052837632241 3.826401220966771 -17.367123868006892
ltibia 90.51729006368207
lfoot 17.88505205653592 -14.993108788369117
ltoes -0.6844446382859548
rfemur -31.205793788392647 4.051186846976362 31.367342102052017
rtibia 50.65133517693192
rfoot -12.0990871528382 -3.2459035150255375
rtoes 12.100071212672841
lowerback 17.29635330400445 -0.2959006156501801 0.8512676599487585
upperback -0.19612843527933344 -0.011773422516164977 2.164006605261248
thorax -9.88865218510615 0.008869583514022394 1.6632166552325554
lowerneck -20.185869292787096 -3.202985342707598 -2.0699887805261996
upperneck 13.1076133062438 -4.0849951524859165 1.514428436964113
head 7.400501798704507 -1.8835027880917605 0.3320631979008287
lclavicle -1.879657837973842e-15 -1.5213950259647703e-15
lhumerus -44.29678449938254 -11.678499259198674 95.89498490486234
lradius 103.97740127812138
lwrist 34.71515661622407
lhand -25.797034046569568 0.23563532608230808
lfingers 7.125020000000054
lthumb 0.741606045668149 30.164275137513258
rclavicle -1.879657837973842e-15 -1.5213950259647703e-15
rhumerus -54.09066822551094 6.333788798987543 -97.56205209774306
rradius 106.07374314728469
rwrist -17.446128538889393
rhand -20.25657372039484 32.501214192634784
rfingers 7.125020000000054
rthumb 6.090946208234827 9.869354496002927
43
root -0.28021425559788843 17.038615356811004 12.032519245312194 2.1133486168569093 -5.580079462487166 -3.3830467109865117
lfemur -10.880680845539695 5.883798830444496 -14.049838648621098
ltibia 98.93027009128105
lfoot 14.415357933167304 -13.210826596413636
ltoes 0.043601194066973825
rfemur -29.03388610660354 5.472241845438441 33.146217995031336
rtibia 54.11609049415427
rfoot -17.353487233405357 -7.848961504977817
rtoes 11.012952244982568
lowerback 17.871931249512475 -0.11166851115914689 1.8403260612798908
upperback -0.13487391825378559 0.4616011813970685 2.592550418835838
thorax -10.146174771795309 0.20009230396030603 1.3886409782367153
lowerneck -20.56257747585331 -3.2580539365908616 -1.889621951796392
upperneck 12.797867565982635 -4.1878499128502344 1.4404276110330057
head 7.359930024535027 -1.928956621329303 0.2662268051780523
lclavicle -1.968725053141713e-15 -1.5903600329900365e-15
lhumerus -46.07833948820033 -11.03752907968377 96.19989399335589
lradius 102.80609892848241
lwrist 34.36946226074335
lhand -25.642723920866864 1.1043174980202473
lfingers 7.125020000000054
lthumb 0.890630567014002 31.03482230244971
rclavicle -1.968725053141713e-15 -1.5903600329900365e-15
rhumerus -50.39606129085164 7.739592635469544 -97.85603752448841
rradius 105.65983204715332
rwrist -17.71415990225987
rhand -20.279789232585305 32.58630082036727
rfingers 7.125020000000054
rthumb 6.068697140799346 9.458176740266252
